<?xml version="1.0" encoding="utf-8"?>
<svg viewBox="18.563 23.034 55.73 53.22" xmlns="http://www.w3.org/2000/svg">
  <path fill="black" stroke="black" d="M 42.685 44.754 C 42.958 43.897 43.15 42.969 43.261 41.968 C 43.371 40.967 43.472 39.971 43.562 38.979 C 43.652 37.988 43.79 37.086 43.977 36.272 C 44.164 35.458 44.409 34.748 44.712 34.141 C 45.016 33.534 45.365 33.071 45.761 32.753 C 46.156 32.435 46.558 32.277 46.966 32.28 C 47.373 32.282 47.739 32.435 48.064 32.737 C 48.389 33.039 48.648 33.461 48.842 34.002 C 49.035 34.544 49.168 35.167 49.241 35.871 C 49.314 36.576 49.357 37.322 49.371 38.11 C 49.384 38.899 49.381 39.721 49.361 40.577 C 49.341 41.434 49.362 42.278 49.424 43.11 C 49.485 43.942 49.623 44.707 49.838 45.407 C 50.052 46.107 50.411 46.66 50.914 47.065 C 51.417 47.47 52.023 47.742 52.733 47.883 C 53.442 48.023 54.222 48.092 55.073 48.089 C 55.924 48.086 56.785 48.076 57.656 48.057 C 58.527 48.039 59.381 48.046 60.219 48.078 C 61.057 48.109 61.835 48.18 62.552 48.29 C 63.269 48.4 63.878 48.566 64.379 48.786 C 64.88 49.007 65.237 49.269 65.45 49.572 C 65.663 49.876 65.712 50.185 65.598 50.502 C 65.483 50.818 65.206 51.107 64.767 51.368 C 64.327 51.629 63.751 51.848 63.038 52.027 C 62.324 52.205 61.524 52.354 60.637 52.471 C 59.751 52.589 58.822 52.684 57.852 52.757 C 56.882 52.83 55.936 52.918 55.015 53.021 C 54.093 53.124 53.261 53.286 52.517 53.509 C 51.773 53.731 51.178 54.07 50.73 54.524 C 50.283 54.979 49.973 55.539 49.8 56.205 C 49.627 56.872 49.526 57.595 49.498 58.377 C 49.469 59.158 49.447 59.944 49.431 60.733 C 49.414 61.522 49.357 62.277 49.258 62.995 C 49.16 63.714 49.005 64.361 48.792 64.939 C 48.579 65.517 48.308 65.978 47.977 66.321 C 47.646 66.665 47.283 66.861 46.891 66.91 C 46.498 66.958 46.115 66.851 45.742 66.59 C 45.37 66.328 45.037 65.93 44.743 65.397 C 44.449 64.863 44.211 64.226 44.029 63.487 C 43.848 62.747 43.715 61.947 43.63 61.088 C 43.545 60.228 43.462 59.366 43.38 58.501 C 43.299 57.637 43.124 56.858 42.857 56.167 C 42.59 55.476 42.174 54.924 41.609 54.513 C 41.045 54.101 40.349 53.831 39.522 53.701 C 38.695 53.571 37.834 53.494 36.937 53.47 C 36.041 53.446 35.171 53.41 34.33 53.363 C 33.488 53.316 32.719 53.21 32.023 53.046 C 31.327 52.881 30.731 52.662 30.236 52.388 C 29.74 52.115 29.389 51.802 29.183 51.45 C 28.977 51.098 28.939 50.745 29.068 50.39 C 29.197 50.036 29.486 49.717 29.936 49.434 C 30.386 49.152 30.961 48.917 31.661 48.729 C 32.361 48.542 33.147 48.402 34.02 48.31 C 34.892 48.217 35.792 48.148 36.719 48.101 C 37.647 48.054 38.521 47.937 39.342 47.751 C 40.164 47.565 40.858 47.233 41.425 46.755 C 41.993 46.277 42.413 45.61 42.685 44.754" style=""/>
  <path fill="black" stroke="black" d="M 32.234 42.3 C 31.769 42.359 31.215 42.511 30.571 42.758 C 29.927 43.005 29.272 43.312 28.603 43.678 C 27.935 44.043 27.285 44.408 26.656 44.772 C 26.028 45.136 25.423 45.508 24.844 45.888 C 24.265 46.269 23.7 46.646 23.155 47.021 C 22.607 47.397 22.124 47.782 21.701 48.177 C 21.28 48.573 20.965 48.973 20.756 49.378 C 20.547 49.782 20.507 50.2 20.64 50.63 C 20.771 51.06 21.015 51.5 21.371 51.951 C 21.726 52.402 22.158 52.858 22.666 53.315 C 23.173 53.773 23.685 54.223 24.204 54.665 C 24.723 55.109 25.249 55.529 25.782 55.928 C 26.316 56.326 26.843 56.71 27.366 57.081 C 27.887 57.453 28.408 57.814 28.926 58.166 C 29.445 58.519 29.956 58.828 30.457 59.093 C 30.959 59.357 31.433 59.522 31.878 59.585 C 32.322 59.65 32.683 59.588 32.957 59.398 C 33.232 59.209 33.366 58.939 33.357 58.588 C 33.348 58.237 33.18 57.868 32.848 57.48 C 32.517 57.091 32.079 56.698 31.531 56.301 C 30.985 55.904 30.4 55.512 29.778 55.125 C 29.156 54.738 28.545 54.344 27.946 53.941 C 27.346 53.541 26.791 53.153 26.279 52.778 C 25.767 52.405 25.356 52.042 25.046 51.689 C 24.736 51.338 24.591 50.993 24.607 50.658 C 24.623 50.321 24.817 49.987 25.189 49.656 C 25.562 49.326 26.041 48.976 26.629 48.607 C 27.217 48.238 27.836 47.852 28.484 47.447 C 29.133 47.041 29.764 46.614 30.379 46.162 C 30.993 45.711 31.538 45.249 32.014 44.773 C 32.49 44.3 32.84 43.866 33.064 43.472 C 33.288 43.079 33.321 42.77 33.165 42.547 C 33.009 42.322 32.698 42.24 32.234 42.3" style=""/>
  <path fill="black" stroke="black" d="M 37.813 65.34 C 37.956 65.778 38.183 66.282 38.493 66.851 C 38.802 67.419 39.164 68.029 39.575 68.68 C 39.988 69.331 40.426 69.996 40.891 70.672 C 41.356 71.349 41.835 71.997 42.326 72.618 C 42.817 73.24 43.325 73.772 43.849 74.217 C 44.373 74.662 44.92 74.967 45.487 75.132 C 46.054 75.297 46.653 75.295 47.281 75.126 C 47.91 74.957 48.564 74.647 49.241 74.193 C 49.919 73.741 50.603 73.196 51.295 72.56 C 51.986 71.924 52.647 71.256 53.279 70.556 C 53.911 69.856 54.471 69.166 54.96 68.486 C 55.449 67.806 55.832 67.171 56.107 66.583 C 56.382 65.995 56.541 65.485 56.581 65.055 C 56.621 64.626 56.567 64.303 56.418 64.09 C 56.269 63.877 56.063 63.783 55.801 63.807 C 55.538 63.832 55.25 63.96 54.935 64.192 C 54.62 64.425 54.285 64.729 53.928 65.107 C 53.572 65.485 53.191 65.903 52.786 66.362 C 52.381 66.821 51.95 67.29 51.495 67.771 C 51.04 68.251 50.57 68.709 50.086 69.146 C 49.602 69.583 49.115 69.952 48.624 70.253 C 48.133 70.553 47.646 70.745 47.162 70.827 C 46.678 70.909 46.199 70.859 45.724 70.677 C 45.249 70.495 44.778 70.202 44.311 69.798 C 43.845 69.394 43.38 68.924 42.919 68.389 C 42.458 67.853 42.002 67.313 41.549 66.769 C 41.097 66.225 40.656 65.733 40.227 65.293 C 39.798 64.854 39.401 64.514 39.035 64.274 C 38.67 64.033 38.367 63.918 38.127 63.926 C 37.886 63.935 37.738 64.063 37.682 64.311 C 37.626 64.558 37.669 64.901 37.813 65.34" style=""/>
  <path fill="black" stroke="black" d="M 64.812 40.908 C 65.174 40.938 65.581 41.094 66.034 41.375 C 66.487 41.656 66.938 42.019 67.388 42.463 C 67.838 42.906 68.286 43.373 68.731 43.863 C 69.177 44.352 69.612 44.836 70.038 45.315 C 70.463 45.794 70.868 46.252 71.253 46.69 C 71.637 47.128 72.004 47.559 72.354 47.983 C 72.704 48.407 72.995 48.822 73.227 49.227 C 73.46 49.633 73.605 50.038 73.663 50.443 C 73.72 50.847 73.635 51.235 73.407 51.605 C 73.18 51.976 72.859 52.347 72.445 52.716 C 72.032 53.085 71.576 53.454 71.077 53.822 C 70.579 54.189 70.104 54.544 69.655 54.886 C 69.205 55.228 68.768 55.563 68.346 55.89 C 67.923 56.217 67.483 56.532 67.026 56.836 C 66.568 57.14 66.077 57.426 65.553 57.695 C 65.028 57.964 64.493 58.156 63.948 58.27 C 63.402 58.384 62.941 58.394 62.564 58.3 C 62.187 58.205 61.949 58.021 61.85 57.745 C 61.751 57.47 61.825 57.16 62.071 56.815 C 62.317 56.47 62.66 56.105 63.1 55.719 C 63.539 55.332 64.03 54.949 64.573 54.567 C 65.115 54.186 65.646 53.795 66.164 53.395 C 66.682 52.996 67.181 52.619 67.662 52.267 C 68.142 51.914 68.533 51.563 68.836 51.213 C 69.139 50.864 69.312 50.52 69.356 50.183 C 69.4 49.845 69.294 49.493 69.039 49.125 C 68.784 48.757 68.448 48.363 68.031 47.944 C 67.615 47.524 67.19 47.083 66.757 46.621 C 66.323 46.159 65.905 45.669 65.5 45.151 C 65.096 44.633 64.752 44.123 64.468 43.623 C 64.183 43.123 63.989 42.657 63.884 42.225 C 63.779 41.794 63.817 41.459 63.998 41.22 C 64.179 40.982 64.45 40.877 64.812 40.908" style="" transform="matrix(0.997407, -0.071974, 0.071974, 0.997407, -3.396607, 5.004516)"/>
  <path fill="black" stroke="black" d="M 38.226 33.843 C 38.24 33.534 38.341 33.167 38.531 32.738 C 38.719 32.31 38.965 31.855 39.272 31.376 C 39.577 30.896 39.91 30.414 40.271 29.93 C 40.631 29.447 40.997 28.967 41.37 28.491 C 41.743 28.016 42.117 27.55 42.494 27.092 C 42.873 26.634 43.251 26.203 43.633 25.798 C 44.012 25.394 44.393 25.046 44.774 24.759 C 45.154 24.47 45.533 24.266 45.909 24.149 C 46.287 24.031 46.664 24.004 47.039 24.067 C 47.413 24.13 47.788 24.27 48.166 24.484 C 48.544 24.698 48.919 24.96 49.291 25.269 C 49.664 25.577 50.032 25.911 50.395 26.272 C 50.759 26.633 51.112 27.005 51.457 27.389 C 51.802 27.772 52.142 28.168 52.478 28.577 C 52.813 28.987 53.148 29.409 53.479 29.844 C 53.81 30.279 54.138 30.727 54.46 31.187 C 54.781 31.647 55.078 32.103 55.347 32.555 C 55.62 33.009 55.833 33.434 55.992 33.833 C 56.15 34.231 56.227 34.576 56.22 34.865 C 56.215 35.153 56.123 35.366 55.945 35.504 C 55.765 35.638 55.524 35.689 55.218 35.651 C 54.912 35.614 54.571 35.494 54.196 35.29 C 53.821 35.088 53.436 34.818 53.044 34.483 C 52.652 34.147 52.26 33.773 51.868 33.357 C 51.477 32.942 51.095 32.514 50.722 32.076 C 50.349 31.637 49.992 31.213 49.649 30.804 C 49.306 30.395 48.987 30.022 48.689 29.689 C 48.39 29.355 48.108 29.078 47.844 28.858 C 47.58 28.639 47.326 28.494 47.08 28.426 C 46.833 28.358 46.583 28.375 46.327 28.476 C 46.073 28.578 45.801 28.759 45.516 29.021 C 45.231 29.283 44.925 29.6 44.598 29.968 C 44.273 30.337 43.924 30.728 43.558 31.141 C 43.191 31.554 42.812 31.955 42.423 32.346 C 42.032 32.737 41.642 33.095 41.251 33.419 C 40.859 33.744 40.481 34.012 40.117 34.223 C 39.754 34.434 39.424 34.566 39.131 34.62 C 38.835 34.674 38.609 34.635 38.447 34.503 C 38.285 34.37 38.211 34.151 38.226 33.843" style=""/>
</svg>